<svg xmlns="http://www.w3.org/2000/svg" viewBox="0 0 32 32">
  <rect width="32" height="32" rx="6" fill="#1a1a1a"/>
  <!-- Pixel-art wrench in red -->
  <rect x="12" y="4" width="4" height="4" fill="#ff6666"/>
  <rect x="8" y="4" width="4" height="4" fill="#cc0000"/>
  <rect x="16" y="4" width="4" height="4" fill="#cc0000"/>
  <rect x="8" y="8" width="4" height="4" fill="#880000"/>
  <rect x="12" y="8" width="4" height="4" fill="#cc0000"/>
  <rect x="16" y="8" width="4" height="4" fill="#880000"/>
  <rect x="12" y="12" width="4" height="4" fill="#cc0000"/>
  <rect x="12" y="16" width="4" height="4" fill="#ff6666"/>
  <rect x="8" y="16" width="4" height="4" fill="#cc0000"/>
  <rect x="16" y="16" width="4" height="4" fill="#cc0000"/>
  <rect x="12" y="20" width="4" height="4" fill="#cc0000"/>
  <rect x="8" y="20" width="4" height="4" fill="#880000"/>
  <rect x="16" y="20" width="4" height="4" fill="#880000"/>
  <rect x="12" y="24" width="4" height="4" fill="#ff6666"/>
  <rect x="8" y="24" width="4" height="4" fill="#cc0000"/>
  <rect x="16" y="24" width="4" height="4" fill="#cc0000"/>
</svg>
